<?xml version="1.0" ?><svg id="Layer_1" style="enable-background:new 0 0 1024 1024;" version="1.1" viewBox="0 0 1024 1024" xml:space="preserve" xmlns="http://www.w3.org/2000/svg" xmlns:xlink="http://www.w3.org/1999/xlink"><style type="text/css">
	.st0{fill:none;stroke:#000000;stroke-width:20;stroke-miterlimit:10;}
	.st1{fill:none;stroke:#FF2222;stroke-width:20;stroke-miterlimit:10;}
</style><g id="XMLID_27_"><path class="st0" d="M242.2,334c22.7-34.4,51.8-64.1,85.6-87.6" id="XMLID_31_"/><path class="st0" d="M189.4,492.8c2.5-42.3,13.1-82.4,30.3-118.7" id="XMLID_30_"/><path class="st0" d="M222.9,656.7c-18.1-36-29.6-75.8-33-118" id="XMLID_29_"/><path class="st0" d="M334,781.8c-34.4-22.7-64.1-51.8-87.6-85.6" id="XMLID_28_"/><path class="st0" d="M492.8,834.6c-42.3-2.5-82.4-13.1-118.7-30.3" id="XMLID_21_"/><path class="st0" d="M656.7,801.1c-36,18.1-75.8,29.6-118,33" id="XMLID_19_"/><path class="st0" d="M781.8,690c-22.7,34.4-51.8,64.1-85.6,87.6" id="XMLID_18_"/><path class="st0" d="M834.6,531.2c-2.5,42.3-13.1,82.4-30.3,118.7" id="XMLID_14_"/><path class="st0" d="M801.1,367.3c18.1,36,29.6,75.9,33,118" id="XMLID_10_"/><path class="st0" d="M690,242.1c34.4,22.7,64.1,51.8,87.6,85.6" id="XMLID_8_"/><path class="st0" d="M531.2,189.4c42.3,2.5,82.4,13.1,118.7,30.3" id="XMLID_6_"/><path class="st0" d="M367.3,222.9c36-18.1,75.8-29.6,118-33" id="XMLID_4_"/><path class="st1" d="M485.3,233.3v-62.2c0-15.1-7-29.4-19.1-38.4c-8-5.9-12.7-13.6-12.7-21.9   c0-18.9,24.5-34.2,54.8-34.2c30.3,0,54.8,15.3,54.8,34.2c0,8.3-4.8,16-12.7,21.9c-12.1,9-19.1,23.3-19.1,38.4v62.2" id="XMLID_3_"/><path class="st1" d="M538.7,790.7v62.2c0,15.1,7,29.4,19.1,38.4c8,5.9,12.7,13.6,12.7,21.9   c0,18.9-24.5,34.2-54.8,34.2c-30.3,0-54.8-15.3-54.8-34.2c0-8.3,4.8-16,12.7-21.9c12.1-9,19.1-23.3,19.1-38.4v-62.2" id="XMLID_15_"/><path class="st0" d="M233.3,538.7h-62.2c-15.1,0-29.4,7-38.4,19.1c-5.9,8-13.6,12.7-21.9,12.7   c-18.9,0-34.2-24.5-34.2-54.8c0-30.3,15.3-54.8,34.2-54.8c8.3,0,16,4.8,21.9,12.7c9,12.1,23.3,19.1,38.4,19.1h62.2" id="XMLID_11_"/><path class="st0" d="M790.7,485.3h62.2c15.1,0,29.4-6.9,38.4-19.1c5.9-7.9,13.6-12.7,21.9-12.7   c18.9,0,34.2,24.5,34.2,54.8c0,30.3-15.3,54.8-34.2,54.8c-8.3,0-16-4.8-21.9-12.7c-9-12.1-23.3-19.1-38.4-19.1h-62.2" id="XMLID_7_"/><path class="st0" d="M349.5,284l-13.6-23.5l-8.2-14.1l-9.4-16.2c-7.5-13.1-20.7-22-35.7-23.8   c-9.9-1.1-17.8-5.4-22-12.6c-9.4-16.3,4.2-41.8,30.4-57c26.2-15.1,55.1-14.1,64.5,2.2c4.2,7.2,3.8,16.2-0.1,25.4   c-6,13.8-4.8,29.7,2.7,42.8l9.1,15.7l8.1,14.1l13.9,24" id="XMLID_1_"/><path class="st0" d="M674.5,740l13.6,23.5l8.2,14.1l9.4,16.2c7.5,13.1,20.7,22,35.7,23.8c9.9,1.2,17.8,5.4,22,12.6   c9.4,16.3-4.2,41.8-30.4,57c-26.2,15.1-55.1,14.1-64.5-2.2c-4.2-7.2-3.8-16.2,0.1-25.3c6-13.8,4.8-29.7-2.7-42.8l-9.1-15.7   l-8.1-14.1l-13.9-24" id="XMLID_16_"/><path class="st1" d="M284,674.5l-23.5,13.6l-14.1,8.2l-16.2,9.4c-13.1,7.6-22,20.7-23.8,35.7   c-1.1,9.9-5.4,17.8-12.6,22c-16.3,9.4-41.8-4.2-57-30.4c-15.1-26.2-14.1-55.1,2.2-64.5c7.2-4.2,16.2-3.8,25.4,0.1   c13.8,6,29.7,4.8,42.8-2.7l15.7-9.1l14.1-8.1l24-13.9" id="XMLID_12_"/><path class="st1" d="M740,349.5l23.5-13.6l14.1-8.2l16.2-9.4c13.1-7.5,22-20.7,23.8-35.7c1.1-9.9,5.4-17.8,12.6-22   c16.3-9.4,41.8,4.2,57,30.4c15.1,26.2,14.1,55.1-2.2,64.5c-7.2,4.2-16.2,3.8-25.4-0.1c-13.8-6-29.7-4.8-42.8,2.7l-15.7,9.1   l-14.1,8.1l-24,13.9" id="XMLID_5_"/><path class="st1" d="M257.3,395.8l-23.5-13.6l-14.1-8.1l-16.2-9.4c-13.1-7.5-29-8.7-42.8-2.7   c-9.1,3.9-18.1,4.3-25.3,0.1c-16.3-9.4-17.3-38.3-2.2-64.5c15.1-26.2,40.6-39.8,57-30.4c7.2,4.2,11.5,12.1,12.6,22   c1.8,15,10.7,28.2,23.8,35.7l15.7,9.1l14.1,8.1l24,13.9" id="XMLID_17_"/><path class="st1" d="M766.7,628.2l23.5,13.6l14.1,8.2l16.2,9.3c13.1,7.5,29,8.7,42.8,2.7c9.1-3.9,18.1-4.3,25.3-0.1   c16.3,9.4,17.3,38.3,2.2,64.5s-40.6,39.8-57,30.4c-7.2-4.2-11.5-12.1-12.6-22c-1.8-15-10.7-28.2-23.8-35.7l-15.7-9.1l-14.1-8.1   l-24-13.8" id="XMLID_9_"/><path class="st0" d="M395.8,766.7l-13.6,23.5l-8.2,14.1l-9.3,16.2c-7.5,13.1-8.7,28.9-2.7,42.8   c3.9,9.1,4.3,18.1,0.1,25.3c-9.4,16.3-38.3,17.3-64.5,2.2s-39.8-40.6-30.4-57c4.2-7.2,12.1-11.5,22-12.6   c15-1.8,28.2-10.7,35.7-23.8l9.1-15.7l8.1-14.1l13.9-24" id="XMLID_13_"/><path class="st0" d="M628.2,257.3l13.6-23.5l8.2-14.1l9.3-16.2c7.5-13.1,8.7-29,2.7-42.8c-3.9-9.1-4.3-18.1-0.1-25.4   c9.4-16.3,38.3-17.3,64.5-2.2c26.2,15.1,39.8,40.6,30.4,57c-4.2,7.2-12.1,11.5-22,12.6c-15,1.8-28.2,10.7-35.7,23.8l-9.1,15.7   l-8.1,14.1l-13.9,24" id="XMLID_2_"/><circle class="st1" cx="485.4" cy="351.3" id="XMLID_20_" r="44.4"/><circle class="st1" cx="521.2" cy="520" id="XMLID_26_" r="44.4"/><circle class="st1" cx="665" cy="439" id="XMLID_22_" r="44.4"/><circle class="st1" cx="349.9" cy="493.7" id="XMLID_23_" r="44.4"/><circle class="st1" cx="448.4" cy="664.3" id="XMLID_24_" r="44.4"/><circle class="st1" cx="652.1" cy="611.9" id="XMLID_25_" r="44.4"/></g></svg>